G04 #@! TF.FileFunction,Soldermask,Top*
%FSLAX46Y46*%
G04 Gerber Fmt 4.6, Leading zero omitted, Abs format (unit mm)*
G04 Created by KiCad (PCBNEW 4.0.7) date 01/06/20 01:41:04*
%MOMM*%
%LPD*%
G01*
G04 APERTURE LIST*
%ADD10C,0.100000*%
%ADD11C,1.924000*%
%ADD12C,5.400000*%
G04 APERTURE END LIST*
D10*
D11*
X89535000Y-135890000D03*
X86995000Y-135890000D03*
X84455000Y-135890000D03*
X81915000Y-135890000D03*
X79375000Y-135890000D03*
X76835000Y-135890000D03*
X74295000Y-135890000D03*
X71755000Y-135890000D03*
X69215000Y-135890000D03*
X66675000Y-135890000D03*
X64135000Y-135890000D03*
X61595000Y-135890000D03*
X89535000Y-133350000D03*
X86995000Y-133350000D03*
X84455000Y-133350000D03*
X81915000Y-133350000D03*
X79375000Y-133350000D03*
X76835000Y-133350000D03*
X74295000Y-133350000D03*
X71755000Y-133350000D03*
X69215000Y-133350000D03*
X66675000Y-133350000D03*
X64135000Y-133350000D03*
X61595000Y-133350000D03*
X89535000Y-130810000D03*
X86995000Y-130810000D03*
X84455000Y-130810000D03*
X81915000Y-130810000D03*
X79375000Y-130810000D03*
X76835000Y-130810000D03*
X74295000Y-130810000D03*
X71755000Y-130810000D03*
X69215000Y-130810000D03*
X66675000Y-130810000D03*
X64135000Y-130810000D03*
X61595000Y-130810000D03*
X89535000Y-128270000D03*
X86995000Y-128270000D03*
X84455000Y-128270000D03*
X81915000Y-128270000D03*
X79375000Y-128270000D03*
X76835000Y-128270000D03*
X74295000Y-128270000D03*
X71755000Y-128270000D03*
X69215000Y-128270000D03*
X66675000Y-128270000D03*
X64135000Y-128270000D03*
X61595000Y-128270000D03*
X89535000Y-125730000D03*
X86995000Y-125730000D03*
X84455000Y-125730000D03*
X81915000Y-125730000D03*
X79375000Y-125730000D03*
X76835000Y-125730000D03*
X74295000Y-125730000D03*
X71755000Y-125730000D03*
X69215000Y-125730000D03*
X66675000Y-125730000D03*
X64135000Y-125730000D03*
X61595000Y-125730000D03*
X89535000Y-123190000D03*
X86995000Y-123190000D03*
X84455000Y-123190000D03*
X81915000Y-123190000D03*
X79375000Y-123190000D03*
X76835000Y-123190000D03*
X74295000Y-123190000D03*
X71755000Y-123190000D03*
X69215000Y-123190000D03*
X66675000Y-123190000D03*
X64135000Y-123190000D03*
X61595000Y-123190000D03*
X89535000Y-120650000D03*
X86995000Y-120650000D03*
X84455000Y-120650000D03*
X81915000Y-120650000D03*
X79375000Y-120650000D03*
X76835000Y-120650000D03*
X74295000Y-120650000D03*
X71755000Y-120650000D03*
X69215000Y-120650000D03*
X66675000Y-120650000D03*
X64135000Y-120650000D03*
X61595000Y-120650000D03*
X89535000Y-118110000D03*
X86995000Y-118110000D03*
X84455000Y-118110000D03*
X81915000Y-118110000D03*
X79375000Y-118110000D03*
X76835000Y-118110000D03*
X74295000Y-118110000D03*
X71755000Y-118110000D03*
X69215000Y-118110000D03*
X66675000Y-118110000D03*
X64135000Y-118110000D03*
X61595000Y-118110000D03*
X89535000Y-115570000D03*
X86995000Y-115570000D03*
X84455000Y-115570000D03*
X81915000Y-115570000D03*
X79375000Y-115570000D03*
X76835000Y-115570000D03*
X74295000Y-115570000D03*
X71755000Y-115570000D03*
X69215000Y-115570000D03*
X66675000Y-115570000D03*
X64135000Y-115570000D03*
X61595000Y-115570000D03*
X89535000Y-113030000D03*
X86995000Y-113030000D03*
X84455000Y-113030000D03*
X81915000Y-113030000D03*
X79375000Y-113030000D03*
X76835000Y-113030000D03*
X74295000Y-113030000D03*
X71755000Y-113030000D03*
X69215000Y-113030000D03*
X66675000Y-113030000D03*
X64135000Y-113030000D03*
X61595000Y-113030000D03*
X89535000Y-110490000D03*
X86995000Y-110490000D03*
X84455000Y-110490000D03*
X81915000Y-110490000D03*
X79375000Y-110490000D03*
X76835000Y-110490000D03*
X74295000Y-110490000D03*
X71755000Y-110490000D03*
X69215000Y-110490000D03*
X66675000Y-110490000D03*
X64135000Y-110490000D03*
X61595000Y-110490000D03*
X89535000Y-107950000D03*
X86995000Y-107950000D03*
X84455000Y-107950000D03*
X81915000Y-107950000D03*
X79375000Y-107950000D03*
X76835000Y-107950000D03*
X74295000Y-107950000D03*
X71755000Y-107950000D03*
X69215000Y-107950000D03*
X66675000Y-107950000D03*
X64135000Y-107950000D03*
X61595000Y-107950000D03*
X89535000Y-105410000D03*
X86995000Y-105410000D03*
X84455000Y-105410000D03*
X81915000Y-105410000D03*
X79375000Y-105410000D03*
X76835000Y-105410000D03*
X74295000Y-105410000D03*
X71755000Y-105410000D03*
X69215000Y-105410000D03*
X66675000Y-105410000D03*
X64135000Y-105410000D03*
X61595000Y-105410000D03*
X89535000Y-102870000D03*
X86995000Y-102870000D03*
X84455000Y-102870000D03*
X81915000Y-102870000D03*
X79375000Y-102870000D03*
X76835000Y-102870000D03*
X74295000Y-102870000D03*
X71755000Y-102870000D03*
X69215000Y-102870000D03*
X66675000Y-102870000D03*
X64135000Y-102870000D03*
X61595000Y-102870000D03*
X89535000Y-100330000D03*
X86995000Y-100330000D03*
X84455000Y-100330000D03*
X81915000Y-100330000D03*
X79375000Y-100330000D03*
X76835000Y-100330000D03*
X74295000Y-100330000D03*
X71755000Y-100330000D03*
X69215000Y-100330000D03*
X66675000Y-100330000D03*
X64135000Y-100330000D03*
X61595000Y-100330000D03*
X89535000Y-97790000D03*
X86995000Y-97790000D03*
X84455000Y-97790000D03*
X81915000Y-97790000D03*
X79375000Y-97790000D03*
X76835000Y-97790000D03*
X74295000Y-97790000D03*
X71755000Y-97790000D03*
X69215000Y-97790000D03*
X66675000Y-97790000D03*
X64135000Y-97790000D03*
X61595000Y-97790000D03*
X89535000Y-95250000D03*
X86995000Y-95250000D03*
X84455000Y-95250000D03*
X81915000Y-95250000D03*
X79375000Y-95250000D03*
X76835000Y-95250000D03*
X74295000Y-95250000D03*
X71755000Y-95250000D03*
X69215000Y-95250000D03*
X66675000Y-95250000D03*
X64135000Y-95250000D03*
X61595000Y-95250000D03*
X89535000Y-92710000D03*
X86995000Y-92710000D03*
X84455000Y-92710000D03*
X81915000Y-92710000D03*
X79375000Y-92710000D03*
X76835000Y-92710000D03*
X74295000Y-92710000D03*
X71755000Y-92710000D03*
X69215000Y-92710000D03*
X66675000Y-92710000D03*
X64135000Y-92710000D03*
X61595000Y-92710000D03*
X89535000Y-90170000D03*
X86995000Y-90170000D03*
X84455000Y-90170000D03*
X81915000Y-90170000D03*
X79375000Y-90170000D03*
X76835000Y-90170000D03*
X74295000Y-90170000D03*
X71755000Y-90170000D03*
X69215000Y-90170000D03*
X66675000Y-90170000D03*
X64135000Y-90170000D03*
X61595000Y-90170000D03*
X89535000Y-87630000D03*
X86995000Y-87630000D03*
X84455000Y-87630000D03*
X81915000Y-87630000D03*
X79375000Y-87630000D03*
X76835000Y-87630000D03*
X74295000Y-87630000D03*
X71755000Y-87630000D03*
X69215000Y-87630000D03*
X66675000Y-87630000D03*
X64135000Y-87630000D03*
X61595000Y-87630000D03*
X89535000Y-85090000D03*
X86995000Y-85090000D03*
X84455000Y-85090000D03*
X81915000Y-85090000D03*
X79375000Y-85090000D03*
X76835000Y-85090000D03*
X74295000Y-85090000D03*
X71755000Y-85090000D03*
X69215000Y-85090000D03*
X66675000Y-85090000D03*
X64135000Y-85090000D03*
X61595000Y-85090000D03*
X89535000Y-82550000D03*
X86995000Y-82550000D03*
X84455000Y-82550000D03*
X81915000Y-82550000D03*
X79375000Y-82550000D03*
X76835000Y-82550000D03*
X74295000Y-82550000D03*
X71755000Y-82550000D03*
X69215000Y-82550000D03*
X66675000Y-82550000D03*
X64135000Y-82550000D03*
X61595000Y-82550000D03*
X89535000Y-80010000D03*
X86995000Y-80010000D03*
X84455000Y-80010000D03*
X81915000Y-80010000D03*
X79375000Y-80010000D03*
X76835000Y-80010000D03*
X74295000Y-80010000D03*
X71755000Y-80010000D03*
X69215000Y-80010000D03*
X66675000Y-80010000D03*
X64135000Y-80010000D03*
X61595000Y-80010000D03*
X89535000Y-77470000D03*
X86995000Y-77470000D03*
X84455000Y-77470000D03*
X81915000Y-77470000D03*
X79375000Y-77470000D03*
X76835000Y-77470000D03*
X74295000Y-77470000D03*
X71755000Y-77470000D03*
X69215000Y-77470000D03*
X66675000Y-77470000D03*
X64135000Y-77470000D03*
X61595000Y-77470000D03*
X89535000Y-74930000D03*
X86995000Y-74930000D03*
X84455000Y-74930000D03*
X81915000Y-74930000D03*
X79375000Y-74930000D03*
X76835000Y-74930000D03*
X74295000Y-74930000D03*
X71755000Y-74930000D03*
X69215000Y-74930000D03*
X66675000Y-74930000D03*
X64135000Y-74930000D03*
X61595000Y-74930000D03*
X89535000Y-72390000D03*
X86995000Y-72390000D03*
X84455000Y-72390000D03*
X81915000Y-72390000D03*
X79375000Y-72390000D03*
X76835000Y-72390000D03*
X74295000Y-72390000D03*
X71755000Y-72390000D03*
X69215000Y-72390000D03*
X66675000Y-72390000D03*
X64135000Y-72390000D03*
X61595000Y-72390000D03*
X89535000Y-69850000D03*
X86995000Y-69850000D03*
X84455000Y-69850000D03*
X81915000Y-69850000D03*
X79375000Y-69850000D03*
X76835000Y-69850000D03*
X74295000Y-69850000D03*
X71755000Y-69850000D03*
X69215000Y-69850000D03*
X66675000Y-69850000D03*
X64135000Y-69850000D03*
X61595000Y-69850000D03*
X89535000Y-67310000D03*
X86995000Y-67310000D03*
X84455000Y-67310000D03*
X81915000Y-67310000D03*
X79375000Y-67310000D03*
X76835000Y-67310000D03*
X74295000Y-67310000D03*
X71755000Y-67310000D03*
X69215000Y-67310000D03*
X66675000Y-67310000D03*
X64135000Y-67310000D03*
X61595000Y-67310000D03*
X89535000Y-64770000D03*
X86995000Y-64770000D03*
X84455000Y-64770000D03*
X81915000Y-64770000D03*
X79375000Y-64770000D03*
X76835000Y-64770000D03*
X74295000Y-64770000D03*
X71755000Y-64770000D03*
X69215000Y-64770000D03*
X66675000Y-64770000D03*
X64135000Y-64770000D03*
X61595000Y-64770000D03*
X89535000Y-62230000D03*
X86995000Y-62230000D03*
X84455000Y-62230000D03*
X81915000Y-62230000D03*
X79375000Y-62230000D03*
X76835000Y-62230000D03*
X74295000Y-62230000D03*
X71755000Y-62230000D03*
X69215000Y-62230000D03*
X66675000Y-62230000D03*
X64135000Y-62230000D03*
X61595000Y-62230000D03*
X89535000Y-59690000D03*
X86995000Y-59690000D03*
X84455000Y-59690000D03*
X81915000Y-59690000D03*
X79375000Y-59690000D03*
X76835000Y-59690000D03*
X74295000Y-59690000D03*
X71755000Y-59690000D03*
X69215000Y-59690000D03*
X66675000Y-59690000D03*
X64135000Y-59690000D03*
X61595000Y-59690000D03*
X89535000Y-57150000D03*
X86995000Y-57150000D03*
X84455000Y-57150000D03*
X81915000Y-57150000D03*
X79375000Y-57150000D03*
X76835000Y-57150000D03*
X74295000Y-57150000D03*
X71755000Y-57150000D03*
X69215000Y-57150000D03*
X66675000Y-57150000D03*
X64135000Y-57150000D03*
X61595000Y-57150000D03*
X89535000Y-54610000D03*
X86995000Y-54610000D03*
X84455000Y-54610000D03*
X81915000Y-54610000D03*
X79375000Y-54610000D03*
X76835000Y-54610000D03*
X74295000Y-54610000D03*
X71755000Y-54610000D03*
X69215000Y-54610000D03*
X66675000Y-54610000D03*
X64135000Y-54610000D03*
X94615000Y-57150000D03*
X94615000Y-54610000D03*
X99695000Y-57150000D03*
X99695000Y-62230000D03*
X104775000Y-62230000D03*
X107315000Y-62230000D03*
X107315000Y-59690000D03*
X107315000Y-57150000D03*
X107315000Y-54610000D03*
X112395000Y-62230000D03*
X114935000Y-59690000D03*
X120015000Y-59690000D03*
X120015000Y-62230000D03*
X125095000Y-54610000D03*
X125095000Y-57150000D03*
X125095000Y-59690000D03*
X125095000Y-62230000D03*
X125095000Y-64770000D03*
X125095000Y-67310000D03*
X125095000Y-69850000D03*
X125095000Y-72390000D03*
X125095000Y-74930000D03*
X125095000Y-77470000D03*
X125095000Y-80010000D03*
X125095000Y-82550000D03*
X120015000Y-85090000D03*
X120015000Y-87630000D03*
X120015000Y-82550000D03*
X120015000Y-80010000D03*
X120015000Y-77470000D03*
X120015000Y-74930000D03*
X117475000Y-80010000D03*
X117475000Y-77470000D03*
X114935000Y-77470000D03*
X112395000Y-77470000D03*
X112395000Y-74930000D03*
X112395000Y-72390000D03*
X109855000Y-72390000D03*
X112395000Y-80010000D03*
X112395000Y-82550000D03*
X112395000Y-85090000D03*
X112395000Y-87630000D03*
X109855000Y-87630000D03*
X109855000Y-85090000D03*
X109855000Y-80010000D03*
X107315000Y-80010000D03*
X107315000Y-77470000D03*
X107315000Y-74930000D03*
X107315000Y-82550000D03*
X107315000Y-85090000D03*
X107315000Y-87630000D03*
X107315000Y-90170000D03*
X107315000Y-92710000D03*
X104775000Y-92710000D03*
X104775000Y-90170000D03*
X102235000Y-92710000D03*
X102235000Y-87630000D03*
X102235000Y-82550000D03*
X99695000Y-92710000D03*
X99695000Y-90170000D03*
X99695000Y-87630000D03*
X99695000Y-85090000D03*
X99695000Y-82550000D03*
X99695000Y-80010000D03*
X99695000Y-77470000D03*
X99695000Y-74930000D03*
X97155000Y-92710000D03*
X94615000Y-85090000D03*
X104775000Y-97790000D03*
X99695000Y-97790000D03*
X99695000Y-100330000D03*
X99695000Y-105410000D03*
X99695000Y-102870000D03*
X99695000Y-107950000D03*
X102235000Y-107950000D03*
X104775000Y-107950000D03*
X107315000Y-107950000D03*
X107315000Y-110490000D03*
X109855000Y-110490000D03*
X112395000Y-110490000D03*
X112395000Y-107950000D03*
X112395000Y-105410000D03*
X112395000Y-102870000D03*
X114935000Y-102870000D03*
X117475000Y-97790000D03*
X99695000Y-110490000D03*
X97155000Y-110490000D03*
X99695000Y-113030000D03*
X99695000Y-115570000D03*
X102235000Y-115570000D03*
X104775000Y-115570000D03*
X107315000Y-115570000D03*
X99695000Y-118110000D03*
X102235000Y-118110000D03*
X102235000Y-120650000D03*
X99695000Y-120650000D03*
X99695000Y-123190000D03*
X99695000Y-125730000D03*
X99695000Y-128270000D03*
X97155000Y-128270000D03*
X104775000Y-128270000D03*
X104775000Y-123190000D03*
X107315000Y-128270000D03*
X107315000Y-125730000D03*
X107315000Y-123190000D03*
X107315000Y-120650000D03*
X107315000Y-118110000D03*
X107315000Y-113030000D03*
X99695000Y-135890000D03*
X102235000Y-135890000D03*
X104775000Y-135890000D03*
X107315000Y-135890000D03*
X109855000Y-135890000D03*
X112395000Y-135890000D03*
X114935000Y-135890000D03*
X117475000Y-135890000D03*
X107315000Y-133350000D03*
X109855000Y-133350000D03*
X109855000Y-128270000D03*
X112395000Y-125730000D03*
X112395000Y-123190000D03*
X114935000Y-123190000D03*
X112395000Y-120650000D03*
X112395000Y-118110000D03*
X112395000Y-115570000D03*
X112395000Y-113030000D03*
X109855000Y-118110000D03*
X109855000Y-113030000D03*
X114935000Y-113030000D03*
X117475000Y-113030000D03*
X117475000Y-115570000D03*
X117475000Y-120650000D03*
X120015000Y-123190000D03*
X122555000Y-123190000D03*
X120015000Y-120650000D03*
X120015000Y-118110000D03*
X120015000Y-115570000D03*
X120015000Y-113030000D03*
X120015000Y-110490000D03*
X120015000Y-107950000D03*
X122555000Y-110490000D03*
X122555000Y-113030000D03*
X122555000Y-115570000D03*
X122555000Y-118110000D03*
X114935000Y-64770000D03*
X114935000Y-67310000D03*
X130175000Y-54610000D03*
X130175000Y-57150000D03*
X130175000Y-59690000D03*
X130175000Y-62230000D03*
X130175000Y-64770000D03*
X130175000Y-67310000D03*
X130175000Y-69850000D03*
X130175000Y-72390000D03*
X130175000Y-74930000D03*
X130175000Y-77470000D03*
X130175000Y-80010000D03*
X130175000Y-82550000D03*
X132715000Y-100330000D03*
X132715000Y-97790000D03*
X132715000Y-95250000D03*
X135255000Y-95250000D03*
X132715000Y-92710000D03*
X132715000Y-87630000D03*
X132715000Y-90170000D03*
X135255000Y-87630000D03*
X135255000Y-85090000D03*
X132715000Y-85090000D03*
X132715000Y-82550000D03*
X132715000Y-80010000D03*
X132715000Y-77470000D03*
X135255000Y-77470000D03*
X135255000Y-74930000D03*
X132715000Y-74930000D03*
X132715000Y-72390000D03*
X132715000Y-69850000D03*
X132715000Y-67310000D03*
X132715000Y-64770000D03*
X135255000Y-64770000D03*
X135255000Y-67310000D03*
X135255000Y-69850000D03*
X135255000Y-72390000D03*
X135255000Y-62230000D03*
X132715000Y-62230000D03*
X132715000Y-59690000D03*
X135255000Y-59690000D03*
X135255000Y-57150000D03*
X135255000Y-54610000D03*
X132715000Y-54610000D03*
X132715000Y-57150000D03*
X137795000Y-54610000D03*
X137795000Y-57150000D03*
X140335000Y-54610000D03*
X137795000Y-82550000D03*
X140335000Y-82550000D03*
X142875000Y-82550000D03*
X140335000Y-85090000D03*
X140335000Y-87630000D03*
X140335000Y-90170000D03*
X140335000Y-92710000D03*
X140335000Y-95250000D03*
X140335000Y-97790000D03*
X140335000Y-100330000D03*
X137795000Y-105410000D03*
X137795000Y-113030000D03*
X140335000Y-113030000D03*
X140335000Y-115570000D03*
X145415000Y-115570000D03*
X145415000Y-118110000D03*
X147955000Y-118110000D03*
X145415000Y-120650000D03*
X145415000Y-123190000D03*
X142875000Y-123190000D03*
X140335000Y-123190000D03*
X140335000Y-120650000D03*
X142875000Y-120650000D03*
X140335000Y-118110000D03*
X140335000Y-125730000D03*
X140335000Y-128270000D03*
X145415000Y-128270000D03*
X137795000Y-128270000D03*
X135255000Y-128270000D03*
X132715000Y-128270000D03*
X132715000Y-125730000D03*
X135255000Y-125730000D03*
X135255000Y-123190000D03*
X135255000Y-120650000D03*
X132715000Y-120650000D03*
X132715000Y-123190000D03*
X132715000Y-118110000D03*
X132715000Y-115570000D03*
X132715000Y-113030000D03*
X135255000Y-133350000D03*
X135255000Y-135890000D03*
X137795000Y-133350000D03*
X137795000Y-135890000D03*
X140335000Y-135890000D03*
X142875000Y-135890000D03*
X145415000Y-135890000D03*
X147955000Y-135890000D03*
X150495000Y-135890000D03*
X142875000Y-97790000D03*
X145415000Y-97790000D03*
X145415000Y-100330000D03*
X145415000Y-95250000D03*
X145415000Y-92710000D03*
X142875000Y-92710000D03*
X142875000Y-90170000D03*
X145415000Y-90170000D03*
X147955000Y-92710000D03*
X145415000Y-87630000D03*
X145415000Y-85090000D03*
X147955000Y-85090000D03*
X150495000Y-85090000D03*
X153035000Y-85090000D03*
X153035000Y-87630000D03*
X153035000Y-90170000D03*
X153035000Y-92710000D03*
X153035000Y-95250000D03*
X153035000Y-97790000D03*
X153035000Y-100330000D03*
X150495000Y-100330000D03*
X150495000Y-102870000D03*
X150495000Y-105410000D03*
X153035000Y-105410000D03*
X145415000Y-105410000D03*
X145415000Y-107950000D03*
X147955000Y-107950000D03*
X150495000Y-110490000D03*
X155575000Y-82550000D03*
X158115000Y-82550000D03*
X160655000Y-82550000D03*
X155575000Y-115570000D03*
X155575000Y-118110000D03*
X158115000Y-123190000D03*
X158115000Y-125730000D03*
X158115000Y-128270000D03*
X158115000Y-105410000D03*
X160655000Y-105410000D03*
X160655000Y-107950000D03*
X160655000Y-110490000D03*
X160655000Y-102870000D03*
X160655000Y-100330000D03*
X160655000Y-97790000D03*
X160655000Y-95250000D03*
X160655000Y-92710000D03*
X160655000Y-90170000D03*
X160655000Y-87630000D03*
X160655000Y-85090000D03*
X160655000Y-80010000D03*
X160655000Y-77470000D03*
X158115000Y-77470000D03*
X155575000Y-77470000D03*
X155575000Y-74930000D03*
X155575000Y-72390000D03*
X155575000Y-69850000D03*
X158115000Y-69850000D03*
X160655000Y-69850000D03*
X160655000Y-72390000D03*
X160655000Y-74930000D03*
X158115000Y-74930000D03*
X158115000Y-72390000D03*
X155575000Y-67310000D03*
X158115000Y-67310000D03*
X160655000Y-67310000D03*
X160655000Y-54610000D03*
X158115000Y-54610000D03*
X155575000Y-54610000D03*
X155575000Y-57150000D03*
X158115000Y-57150000D03*
X160655000Y-57150000D03*
X160655000Y-59690000D03*
X160655000Y-62230000D03*
X158115000Y-62230000D03*
X155575000Y-62230000D03*
X155575000Y-64770000D03*
X158115000Y-64770000D03*
X160655000Y-64770000D03*
X165735000Y-54610000D03*
X165735000Y-57150000D03*
X165735000Y-59690000D03*
X165735000Y-62230000D03*
X165735000Y-64770000D03*
X165735000Y-67310000D03*
X165735000Y-69850000D03*
X165735000Y-72390000D03*
X165735000Y-74930000D03*
X165735000Y-77470000D03*
X165735000Y-80010000D03*
X165735000Y-82550000D03*
X165735000Y-85090000D03*
X165735000Y-87630000D03*
X165735000Y-92710000D03*
X165735000Y-90170000D03*
X165735000Y-95250000D03*
X165735000Y-97790000D03*
X165735000Y-100330000D03*
X165735000Y-102870000D03*
X165735000Y-105410000D03*
X165735000Y-107950000D03*
X165735000Y-110490000D03*
X168275000Y-110490000D03*
X168275000Y-120650000D03*
X168275000Y-128270000D03*
X170815000Y-120650000D03*
X173355000Y-113030000D03*
X170815000Y-105410000D03*
X168275000Y-100330000D03*
X170815000Y-97790000D03*
X168275000Y-95250000D03*
X168275000Y-92710000D03*
X170815000Y-90170000D03*
X170815000Y-87630000D03*
X170815000Y-85090000D03*
X170815000Y-82550000D03*
X173355000Y-82550000D03*
X173355000Y-80010000D03*
X170815000Y-80010000D03*
X170815000Y-77470000D03*
X168275000Y-77470000D03*
X168275000Y-74930000D03*
X170815000Y-74930000D03*
X170815000Y-72390000D03*
X168275000Y-72390000D03*
X168275000Y-69850000D03*
X168275000Y-67310000D03*
X168275000Y-64770000D03*
X168275000Y-62230000D03*
X170815000Y-67310000D03*
X170815000Y-69850000D03*
X173355000Y-69850000D03*
X173355000Y-72390000D03*
X175895000Y-72390000D03*
X178435000Y-72390000D03*
X180975000Y-72390000D03*
X183515000Y-72390000D03*
X186055000Y-72390000D03*
X188595000Y-72390000D03*
X191135000Y-72390000D03*
X193675000Y-72390000D03*
X196215000Y-72390000D03*
X198755000Y-72390000D03*
X201295000Y-72390000D03*
X203835000Y-72390000D03*
X206375000Y-72390000D03*
X208915000Y-72390000D03*
X211455000Y-72390000D03*
X213995000Y-72390000D03*
X216535000Y-72390000D03*
X219075000Y-72390000D03*
X213995000Y-69850000D03*
X211455000Y-69850000D03*
X208915000Y-67310000D03*
X201295000Y-69850000D03*
X226695000Y-72390000D03*
X170815000Y-57150000D03*
X173355000Y-57150000D03*
X175895000Y-57150000D03*
X178435000Y-57150000D03*
X180975000Y-57150000D03*
X183515000Y-57150000D03*
X186055000Y-57150000D03*
X188595000Y-57150000D03*
X191135000Y-57150000D03*
X193675000Y-57150000D03*
X196215000Y-57150000D03*
X198755000Y-57150000D03*
X201295000Y-57150000D03*
X203835000Y-57150000D03*
X206375000Y-57150000D03*
X208915000Y-57150000D03*
X211455000Y-57150000D03*
X213995000Y-57150000D03*
X216535000Y-57150000D03*
X219075000Y-57150000D03*
X219075000Y-54610000D03*
X216535000Y-52070000D03*
X216535000Y-49530000D03*
X211455000Y-49530000D03*
X208915000Y-52070000D03*
X206375000Y-52070000D03*
X206375000Y-49530000D03*
X201295000Y-52070000D03*
X201295000Y-49530000D03*
X201295000Y-54610000D03*
X191135000Y-49530000D03*
X191135000Y-52070000D03*
X186055000Y-49530000D03*
X186055000Y-52070000D03*
X180975000Y-54610000D03*
X178435000Y-49530000D03*
X175895000Y-49530000D03*
X175895000Y-52070000D03*
X173355000Y-49530000D03*
X226695000Y-57150000D03*
X226695000Y-54610000D03*
X201295000Y-59690000D03*
X203835000Y-59690000D03*
X206375000Y-59690000D03*
X206375000Y-62230000D03*
X198755000Y-59690000D03*
X196215000Y-59690000D03*
X196215000Y-62230000D03*
X193675000Y-62230000D03*
X191135000Y-62230000D03*
X191135000Y-64770000D03*
X193675000Y-64770000D03*
X188595000Y-67310000D03*
X186055000Y-62230000D03*
X183515000Y-64770000D03*
X178435000Y-74930000D03*
X180975000Y-74930000D03*
X183515000Y-74930000D03*
X183515000Y-77470000D03*
X183515000Y-80010000D03*
X186055000Y-80010000D03*
X188595000Y-77470000D03*
X183515000Y-82550000D03*
X178435000Y-82550000D03*
X183515000Y-85090000D03*
X183515000Y-87630000D03*
X186055000Y-87630000D03*
X175895000Y-87630000D03*
X183515000Y-90170000D03*
X183515000Y-92710000D03*
X186055000Y-92710000D03*
X186055000Y-95250000D03*
X183515000Y-95250000D03*
X180975000Y-95250000D03*
X178435000Y-97790000D03*
X175895000Y-97790000D03*
X183515000Y-97790000D03*
X183515000Y-100330000D03*
X183515000Y-102870000D03*
X186055000Y-100330000D03*
X188595000Y-102870000D03*
X191135000Y-100330000D03*
X191135000Y-92710000D03*
X193675000Y-102870000D03*
X193675000Y-100330000D03*
X193675000Y-97790000D03*
X193675000Y-95250000D03*
X193675000Y-92710000D03*
X193675000Y-90170000D03*
X193675000Y-87630000D03*
X193675000Y-85090000D03*
X193675000Y-82550000D03*
X193675000Y-80010000D03*
X193675000Y-77470000D03*
X196215000Y-74930000D03*
X196215000Y-77470000D03*
X196215000Y-80010000D03*
X196215000Y-82550000D03*
X196215000Y-85090000D03*
X196215000Y-87630000D03*
X196215000Y-90170000D03*
X196215000Y-92710000D03*
X196215000Y-95250000D03*
X196215000Y-97790000D03*
X196215000Y-100330000D03*
X196215000Y-102870000D03*
X196215000Y-105410000D03*
X193675000Y-107950000D03*
X198755000Y-105410000D03*
X198755000Y-102870000D03*
X198755000Y-95250000D03*
X198755000Y-90170000D03*
X198755000Y-87630000D03*
X201295000Y-87630000D03*
X201295000Y-90170000D03*
X201295000Y-95250000D03*
X201295000Y-97790000D03*
X203835000Y-97790000D03*
X206375000Y-97790000D03*
X203835000Y-100330000D03*
X206375000Y-100330000D03*
X208915000Y-100330000D03*
X211455000Y-100330000D03*
X211455000Y-102870000D03*
X208915000Y-102870000D03*
X206375000Y-102870000D03*
X203835000Y-102870000D03*
X201295000Y-102870000D03*
X206375000Y-95250000D03*
X206375000Y-92710000D03*
X206375000Y-90170000D03*
X206375000Y-87630000D03*
X206375000Y-85090000D03*
X206375000Y-82550000D03*
X206375000Y-80010000D03*
X206375000Y-77470000D03*
X206375000Y-74930000D03*
X203835000Y-77470000D03*
X208915000Y-77470000D03*
X211455000Y-77470000D03*
X211455000Y-80010000D03*
X213995000Y-80010000D03*
X211455000Y-82550000D03*
X208915000Y-82550000D03*
X211455000Y-85090000D03*
X213995000Y-85090000D03*
X216535000Y-85090000D03*
X219075000Y-85090000D03*
X221615000Y-87630000D03*
X219075000Y-87630000D03*
X216535000Y-87630000D03*
X213995000Y-87630000D03*
X211455000Y-87630000D03*
X211455000Y-90170000D03*
X211455000Y-92710000D03*
X211455000Y-95250000D03*
X213995000Y-92710000D03*
X216535000Y-90170000D03*
X219075000Y-90170000D03*
X219075000Y-92710000D03*
X219075000Y-95250000D03*
X224155000Y-85090000D03*
X226695000Y-85090000D03*
X226695000Y-82550000D03*
X226695000Y-80010000D03*
X226695000Y-77470000D03*
X226695000Y-74930000D03*
X224155000Y-80010000D03*
X221615000Y-80010000D03*
X219075000Y-80010000D03*
X219075000Y-77470000D03*
X219075000Y-82550000D03*
X226695000Y-87630000D03*
X226695000Y-90170000D03*
X224155000Y-92710000D03*
X226695000Y-92710000D03*
X226695000Y-95250000D03*
X226695000Y-97790000D03*
X226695000Y-100330000D03*
X221615000Y-100330000D03*
X219075000Y-102870000D03*
X221615000Y-102870000D03*
X224155000Y-102870000D03*
X226695000Y-102870000D03*
X226695000Y-105410000D03*
X226695000Y-107950000D03*
X224155000Y-107950000D03*
X221615000Y-107950000D03*
X219075000Y-107950000D03*
X219075000Y-105410000D03*
X216535000Y-105410000D03*
X213995000Y-105410000D03*
X211455000Y-105410000D03*
X211455000Y-107950000D03*
X213995000Y-107950000D03*
X216535000Y-107950000D03*
X211455000Y-110490000D03*
X219075000Y-110490000D03*
X221615000Y-110490000D03*
X226695000Y-110490000D03*
X221615000Y-113030000D03*
X219075000Y-113030000D03*
X219075000Y-115570000D03*
X219075000Y-118110000D03*
X219075000Y-120650000D03*
X219075000Y-123190000D03*
X221615000Y-123190000D03*
X221615000Y-120650000D03*
X224155000Y-118110000D03*
X226695000Y-118110000D03*
X226695000Y-120650000D03*
X226695000Y-115570000D03*
X226695000Y-113030000D03*
X216535000Y-120650000D03*
X216535000Y-123190000D03*
X216535000Y-125730000D03*
X216535000Y-128270000D03*
X213995000Y-125730000D03*
X213995000Y-128270000D03*
X216535000Y-133350000D03*
X221615000Y-133350000D03*
X221615000Y-128270000D03*
X208915000Y-125730000D03*
X208915000Y-128270000D03*
X206375000Y-125730000D03*
X206375000Y-128270000D03*
X206375000Y-130810000D03*
X206375000Y-133350000D03*
X206375000Y-123190000D03*
X206375000Y-120650000D03*
X208915000Y-120650000D03*
X211455000Y-120650000D03*
X211455000Y-118110000D03*
X211455000Y-115570000D03*
X211455000Y-113030000D03*
X203835000Y-133350000D03*
X198755000Y-133350000D03*
X198755000Y-130810000D03*
X198755000Y-128270000D03*
X201295000Y-128270000D03*
X198755000Y-125730000D03*
X198755000Y-123190000D03*
X198755000Y-120650000D03*
X198755000Y-118110000D03*
X198755000Y-115570000D03*
X201295000Y-113030000D03*
X203835000Y-110490000D03*
X203835000Y-115570000D03*
X206375000Y-115570000D03*
X206375000Y-113030000D03*
X208915000Y-113030000D03*
X206375000Y-118110000D03*
X203835000Y-120650000D03*
X201295000Y-120650000D03*
X196215000Y-118110000D03*
X193675000Y-118110000D03*
X193675000Y-120650000D03*
X193675000Y-123190000D03*
X193675000Y-125730000D03*
X193675000Y-128270000D03*
X193675000Y-130810000D03*
X193675000Y-133350000D03*
X191135000Y-133350000D03*
X196215000Y-120650000D03*
X191135000Y-123190000D03*
X191135000Y-125730000D03*
X188595000Y-115570000D03*
X186055000Y-118110000D03*
X186055000Y-120650000D03*
X186055000Y-123190000D03*
X186055000Y-125730000D03*
X186055000Y-128270000D03*
X186055000Y-130810000D03*
X186055000Y-133350000D03*
X178435000Y-128270000D03*
X175895000Y-123190000D03*
X208915000Y-118110000D03*
X213995000Y-118110000D03*
X216535000Y-118110000D03*
X216535000Y-115570000D03*
X213995000Y-115570000D03*
X216535000Y-113030000D03*
X61595000Y-54610000D03*
X137795000Y-118110000D03*
X120015000Y-72390000D03*
X150495000Y-95250000D03*
X150495000Y-90170000D03*
D12*
X95885000Y-49530000D03*
X88265000Y-49530000D03*
X95885000Y-140335000D03*
X88265000Y-140335000D03*
X62865000Y-49530000D03*
X62865000Y-140335000D03*
X123825000Y-49530000D03*
X131445000Y-49530000D03*
X123825000Y-140335000D03*
X131445000Y-140335000D03*
X159385000Y-140335000D03*
X167005000Y-140335000D03*
X159385000Y-49530000D03*
X167005000Y-49530000D03*
X228600000Y-49530000D03*
X228600000Y-140335000D03*
M02*
