M48
;DRILL file {KiCad 4.0.7} date 01/06/20 01:41:13
;FORMAT={2:4/ absolute / inch / suppress leading zeros}
FMAT,2
INCH,TZ
T1C0.030
T2C0.120
%
G90
G05
M72
T1
X24250Y-21500
X24250Y-22500
X24250Y-23500
X24250Y-24500
X24250Y-25500
X24250Y-26500
X24250Y-27500
X24250Y-28500
X24250Y-29500
X24250Y-30500
X24250Y-31500
X24250Y-32500
X24250Y-33500
X24250Y-34500
X24250Y-35500
X24250Y-36500
X24250Y-37500
X24250Y-38500
X24250Y-39500
X24250Y-40500
X24250Y-41500
X24250Y-42500
X24250Y-43500
X24250Y-44500
X24250Y-45500
X24250Y-46500
X24250Y-47500
X24250Y-48500
X24250Y-49500
X24250Y-50500
X24250Y-51500
X24250Y-52500
X24250Y-53500
X25250Y-21500
X25250Y-22500
X25250Y-23500
X25250Y-24500
X25250Y-25500
X25250Y-26500
X25250Y-27500
X25250Y-28500
X25250Y-29500
X25250Y-30500
X25250Y-31500
X25250Y-32500
X25250Y-33500
X25250Y-34500
X25250Y-35500
X25250Y-36500
X25250Y-37500
X25250Y-38500
X25250Y-39500
X25250Y-40500
X25250Y-41500
X25250Y-42500
X25250Y-43500
X25250Y-44500
X25250Y-45500
X25250Y-46500
X25250Y-47500
X25250Y-48500
X25250Y-49500
X25250Y-50500
X25250Y-51500
X25250Y-52500
X25250Y-53500
X26250Y-21500
X26250Y-22500
X26250Y-23500
X26250Y-24500
X26250Y-25500
X26250Y-26500
X26250Y-27500
X26250Y-28500
X26250Y-29500
X26250Y-30500
X26250Y-31500
X26250Y-32500
X26250Y-33500
X26250Y-34500
X26250Y-35500
X26250Y-36500
X26250Y-37500
X26250Y-38500
X26250Y-39500
X26250Y-40500
X26250Y-41500
X26250Y-42500
X26250Y-43500
X26250Y-44500
X26250Y-45500
X26250Y-46500
X26250Y-47500
X26250Y-48500
X26250Y-49500
X26250Y-50500
X26250Y-51500
X26250Y-52500
X26250Y-53500
X27250Y-21500
X27250Y-22500
X27250Y-23500
X27250Y-24500
X27250Y-25500
X27250Y-26500
X27250Y-27500
X27250Y-28500
X27250Y-29500
X27250Y-30500
X27250Y-31500
X27250Y-32500
X27250Y-33500
X27250Y-34500
X27250Y-35500
X27250Y-36500
X27250Y-37500
X27250Y-38500
X27250Y-39500
X27250Y-40500
X27250Y-41500
X27250Y-42500
X27250Y-43500
X27250Y-44500
X27250Y-45500
X27250Y-46500
X27250Y-47500
X27250Y-48500
X27250Y-49500
X27250Y-50500
X27250Y-51500
X27250Y-52500
X27250Y-53500
X28250Y-21500
X28250Y-22500
X28250Y-23500
X28250Y-24500
X28250Y-25500
X28250Y-26500
X28250Y-27500
X28250Y-28500
X28250Y-29500
X28250Y-30500
X28250Y-31500
X28250Y-32500
X28250Y-33500
X28250Y-34500
X28250Y-35500
X28250Y-36500
X28250Y-37500
X28250Y-38500
X28250Y-39500
X28250Y-40500
X28250Y-41500
X28250Y-42500
X28250Y-43500
X28250Y-44500
X28250Y-45500
X28250Y-46500
X28250Y-47500
X28250Y-48500
X28250Y-49500
X28250Y-50500
X28250Y-51500
X28250Y-52500
X28250Y-53500
X29250Y-21500
X29250Y-22500
X29250Y-23500
X29250Y-24500
X29250Y-25500
X29250Y-26500
X29250Y-27500
X29250Y-28500
X29250Y-29500
X29250Y-30500
X29250Y-31500
X29250Y-32500
X29250Y-33500
X29250Y-34500
X29250Y-35500
X29250Y-36500
X29250Y-37500
X29250Y-38500
X29250Y-39500
X29250Y-40500
X29250Y-41500
X29250Y-42500
X29250Y-43500
X29250Y-44500
X29250Y-45500
X29250Y-46500
X29250Y-47500
X29250Y-48500
X29250Y-49500
X29250Y-50500
X29250Y-51500
X29250Y-52500
X29250Y-53500
X30250Y-21500
X30250Y-22500
X30250Y-23500
X30250Y-24500
X30250Y-25500
X30250Y-26500
X30250Y-27500
X30250Y-28500
X30250Y-29500
X30250Y-30500
X30250Y-31500
X30250Y-32500
X30250Y-33500
X30250Y-34500
X30250Y-35500
X30250Y-36500
X30250Y-37500
X30250Y-38500
X30250Y-39500
X30250Y-40500
X30250Y-41500
X30250Y-42500
X30250Y-43500
X30250Y-44500
X30250Y-45500
X30250Y-46500
X30250Y-47500
X30250Y-48500
X30250Y-49500
X30250Y-50500
X30250Y-51500
X30250Y-52500
X30250Y-53500
X31250Y-21500
X31250Y-22500
X31250Y-23500
X31250Y-24500
X31250Y-25500
X31250Y-26500
X31250Y-27500
X31250Y-28500
X31250Y-29500
X31250Y-30500
X31250Y-31500
X31250Y-32500
X31250Y-33500
X31250Y-34500
X31250Y-35500
X31250Y-36500
X31250Y-37500
X31250Y-38500
X31250Y-39500
X31250Y-40500
X31250Y-41500
X31250Y-42500
X31250Y-43500
X31250Y-44500
X31250Y-45500
X31250Y-46500
X31250Y-47500
X31250Y-48500
X31250Y-49500
X31250Y-50500
X31250Y-51500
X31250Y-52500
X31250Y-53500
X32250Y-21500
X32250Y-22500
X32250Y-23500
X32250Y-24500
X32250Y-25500
X32250Y-26500
X32250Y-27500
X32250Y-28500
X32250Y-29500
X32250Y-30500
X32250Y-31500
X32250Y-32500
X32250Y-33500
X32250Y-34500
X32250Y-35500
X32250Y-36500
X32250Y-37500
X32250Y-38500
X32250Y-39500
X32250Y-40500
X32250Y-41500
X32250Y-42500
X32250Y-43500
X32250Y-44500
X32250Y-45500
X32250Y-46500
X32250Y-47500
X32250Y-48500
X32250Y-49500
X32250Y-50500
X32250Y-51500
X32250Y-52500
X32250Y-53500
X33250Y-21500
X33250Y-22500
X33250Y-23500
X33250Y-24500
X33250Y-25500
X33250Y-26500
X33250Y-27500
X33250Y-28500
X33250Y-29500
X33250Y-30500
X33250Y-31500
X33250Y-32500
X33250Y-33500
X33250Y-34500
X33250Y-35500
X33250Y-36500
X33250Y-37500
X33250Y-38500
X33250Y-39500
X33250Y-40500
X33250Y-41500
X33250Y-42500
X33250Y-43500
X33250Y-44500
X33250Y-45500
X33250Y-46500
X33250Y-47500
X33250Y-48500
X33250Y-49500
X33250Y-50500
X33250Y-51500
X33250Y-52500
X33250Y-53500
X34250Y-21500
X34250Y-22500
X34250Y-23500
X34250Y-24500
X34250Y-25500
X34250Y-26500
X34250Y-27500
X34250Y-28500
X34250Y-29500
X34250Y-30500
X34250Y-31500
X34250Y-32500
X34250Y-33500
X34250Y-34500
X34250Y-35500
X34250Y-36500
X34250Y-37500
X34250Y-38500
X34250Y-39500
X34250Y-40500
X34250Y-41500
X34250Y-42500
X34250Y-43500
X34250Y-44500
X34250Y-45500
X34250Y-46500
X34250Y-47500
X34250Y-48500
X34250Y-49500
X34250Y-50500
X34250Y-51500
X34250Y-52500
X34250Y-53500
X35250Y-21500
X35250Y-22500
X35250Y-23500
X35250Y-24500
X35250Y-25500
X35250Y-26500
X35250Y-27500
X35250Y-28500
X35250Y-29500
X35250Y-30500
X35250Y-31500
X35250Y-32500
X35250Y-33500
X35250Y-34500
X35250Y-35500
X35250Y-36500
X35250Y-37500
X35250Y-38500
X35250Y-39500
X35250Y-40500
X35250Y-41500
X35250Y-42500
X35250Y-43500
X35250Y-44500
X35250Y-45500
X35250Y-46500
X35250Y-47500
X35250Y-48500
X35250Y-49500
X35250Y-50500
X35250Y-51500
X35250Y-52500
X35250Y-53500
X37250Y-21500
X37250Y-22500
X37250Y-33500
X38250Y-36500
X38250Y-43500
X38250Y-50500
X39250Y-22500
X39250Y-24500
X39250Y-29500
X39250Y-30500
X39250Y-31500
X39250Y-32500
X39250Y-33500
X39250Y-34500
X39250Y-35500
X39250Y-36500
X39250Y-38500
X39250Y-39500
X39250Y-40500
X39250Y-41500
X39250Y-42500
X39250Y-43500
X39250Y-44500
X39250Y-45500
X39250Y-46500
X39250Y-47500
X39250Y-48500
X39250Y-49500
X39250Y-50500
X39250Y-53500
X40250Y-32500
X40250Y-34500
X40250Y-36500
X40250Y-42500
X40250Y-45500
X40250Y-46500
X40250Y-47500
X40250Y-53500
X41250Y-24500
X41250Y-35500
X41250Y-36500
X41250Y-38500
X41250Y-42500
X41250Y-45500
X41250Y-48500
X41250Y-50500
X41250Y-53500
X42250Y-21500
X42250Y-22500
X42250Y-23500
X42250Y-24500
X42250Y-29500
X42250Y-30500
X42250Y-31500
X42250Y-32500
X42250Y-33500
X42250Y-34500
X42250Y-35500
X42250Y-36500
X42250Y-42500
X42250Y-43500
X42250Y-44500
X42250Y-45500
X42250Y-46500
X42250Y-47500
X42250Y-48500
X42250Y-49500
X42250Y-50500
X42250Y-52500
X42250Y-53500
X43250Y-28500
X43250Y-31500
X43250Y-33500
X43250Y-34500
X43250Y-43500
X43250Y-44500
X43250Y-46500
X43250Y-50500
X43250Y-52500
X43250Y-53500
X44250Y-24500
X44250Y-28500
X44250Y-29500
X44250Y-30500
X44250Y-31500
X44250Y-32500
X44250Y-33500
X44250Y-34500
X44250Y-40500
X44250Y-41500
X44250Y-42500
X44250Y-43500
X44250Y-44500
X44250Y-45500
X44250Y-46500
X44250Y-47500
X44250Y-48500
X44250Y-49500
X44250Y-53500
X45250Y-23500
X45250Y-25500
X45250Y-26500
X45250Y-30500
X45250Y-40500
X45250Y-44500
X45250Y-48500
X45250Y-53500
X46250Y-30500
X46250Y-31500
X46250Y-38500
X46250Y-44500
X46250Y-45500
X46250Y-47500
X46250Y-53500
X47250Y-23500
X47250Y-24500
X47250Y-28500
X47250Y-29500
X47250Y-30500
X47250Y-31500
X47250Y-32500
X47250Y-33500
X47250Y-34500
X47250Y-42500
X47250Y-43500
X47250Y-44500
X47250Y-45500
X47250Y-46500
X47250Y-47500
X47250Y-48500
X48250Y-43500
X48250Y-44500
X48250Y-45500
X48250Y-46500
X48250Y-48500
X49250Y-21500
X49250Y-22500
X49250Y-23500
X49250Y-24500
X49250Y-25500
X49250Y-26500
X49250Y-27500
X49250Y-28500
X49250Y-29500
X49250Y-30500
X49250Y-31500
X49250Y-32500
X51250Y-21500
X51250Y-22500
X51250Y-23500
X51250Y-24500
X51250Y-25500
X51250Y-26500
X51250Y-27500
X51250Y-28500
X51250Y-29500
X51250Y-30500
X51250Y-31500
X51250Y-32500
X52250Y-21500
X52250Y-22500
X52250Y-23500
X52250Y-24500
X52250Y-25500
X52250Y-26500
X52250Y-27500
X52250Y-28500
X52250Y-29500
X52250Y-30500
X52250Y-31500
X52250Y-32500
X52250Y-33500
X52250Y-34500
X52250Y-35500
X52250Y-36500
X52250Y-37500
X52250Y-38500
X52250Y-39500
X52250Y-44500
X52250Y-45500
X52250Y-46500
X52250Y-47500
X52250Y-48500
X52250Y-49500
X52250Y-50500
X53250Y-21500
X53250Y-22500
X53250Y-23500
X53250Y-24500
X53250Y-25500
X53250Y-26500
X53250Y-27500
X53250Y-28500
X53250Y-29500
X53250Y-30500
X53250Y-33500
X53250Y-34500
X53250Y-37500
X53250Y-47500
X53250Y-48500
X53250Y-49500
X53250Y-50500
X53250Y-52500
X53250Y-53500
X54250Y-21500
X54250Y-22500
X54250Y-32500
X54250Y-41500
X54250Y-44500
X54250Y-46500
X54250Y-50500
X54250Y-52500
X54250Y-53500
X55250Y-21500
X55250Y-32500
X55250Y-33500
X55250Y-34500
X55250Y-35500
X55250Y-36500
X55250Y-37500
X55250Y-38500
X55250Y-39500
X55250Y-44500
X55250Y-45500
X55250Y-46500
X55250Y-47500
X55250Y-48500
X55250Y-49500
X55250Y-50500
X55250Y-53500
X56250Y-32500
X56250Y-35500
X56250Y-36500
X56250Y-38500
X56250Y-47500
X56250Y-48500
X56250Y-53500
X57250Y-33500
X57250Y-34500
X57250Y-35500
X57250Y-36500
X57250Y-37500
X57250Y-38500
X57250Y-39500
X57250Y-41500
X57250Y-42500
X57250Y-45500
X57250Y-46500
X57250Y-47500
X57250Y-48500
X57250Y-50500
X57250Y-53500
X58250Y-33500
X58250Y-36500
X58250Y-42500
X58250Y-46500
X58250Y-53500
X59250Y-33500
X59250Y-35500
X59250Y-37500
X59250Y-39500
X59250Y-40500
X59250Y-41500
X59250Y-43500
X59250Y-53500
X60250Y-33500
X60250Y-34500
X60250Y-35500
X60250Y-36500
X60250Y-37500
X60250Y-38500
X60250Y-39500
X60250Y-41500
X61250Y-21500
X61250Y-22500
X61250Y-24500
X61250Y-25500
X61250Y-26500
X61250Y-27500
X61250Y-28500
X61250Y-29500
X61250Y-30500
X61250Y-32500
X61250Y-45500
X61250Y-46500
X62250Y-21500
X62250Y-22500
X62250Y-24500
X62250Y-25500
X62250Y-26500
X62250Y-27500
X62250Y-28500
X62250Y-29500
X62250Y-30500
X62250Y-32500
X62250Y-41500
X62250Y-48500
X62250Y-49500
X62250Y-50500
X63250Y-21500
X63250Y-22500
X63250Y-23500
X63250Y-24500
X63250Y-25500
X63250Y-26500
X63250Y-27500
X63250Y-28500
X63250Y-29500
X63250Y-30500
X63250Y-31500
X63250Y-32500
X63250Y-33500
X63250Y-34500
X63250Y-35500
X63250Y-36500
X63250Y-37500
X63250Y-38500
X63250Y-39500
X63250Y-40500
X63250Y-41500
X63250Y-42500
X63250Y-43500
X65250Y-21500
X65250Y-22500
X65250Y-23500
X65250Y-24500
X65250Y-25500
X65250Y-26500
X65250Y-27500
X65250Y-28500
X65250Y-29500
X65250Y-30500
X65250Y-31500
X65250Y-32500
X65250Y-33500
X65250Y-34500
X65250Y-35500
X65250Y-36500
X65250Y-37500
X65250Y-38500
X65250Y-39500
X65250Y-40500
X65250Y-41500
X65250Y-42500
X65250Y-43500
X66250Y-24500
X66250Y-25500
X66250Y-26500
X66250Y-27500
X66250Y-28500
X66250Y-29500
X66250Y-30500
X66250Y-36500
X66250Y-37500
X66250Y-39500
X66250Y-43500
X66250Y-47500
X66250Y-50500
X67250Y-22500
X67250Y-26500
X67250Y-27500
X67250Y-28500
X67250Y-29500
X67250Y-30500
X67250Y-31500
X67250Y-32500
X67250Y-33500
X67250Y-34500
X67250Y-35500
X67250Y-38500
X67250Y-41500
X67250Y-47500
X68250Y-19500
X68250Y-22500
X68250Y-27500
X68250Y-28500
X68250Y-31500
X68250Y-32500
X68250Y-44500
X69250Y-19500
X69250Y-20500
X69250Y-22500
X69250Y-28500
X69250Y-34500
X69250Y-38500
X69250Y-48500
X70250Y-19500
X70250Y-22500
X70250Y-28500
X70250Y-29500
X70250Y-32500
X70250Y-38500
X70250Y-50500
X71250Y-21500
X71250Y-22500
X71250Y-28500
X71250Y-29500
X71250Y-37500
X72250Y-22500
X72250Y-25500
X72250Y-28500
X72250Y-29500
X72250Y-30500
X72250Y-31500
X72250Y-32500
X72250Y-33500
X72250Y-34500
X72250Y-35500
X72250Y-36500
X72250Y-37500
X72250Y-38500
X72250Y-39500
X72250Y-40500
X73250Y-19500
X73250Y-20500
X73250Y-22500
X73250Y-24500
X73250Y-28500
X73250Y-31500
X73250Y-34500
X73250Y-36500
X73250Y-37500
X73250Y-39500
X73250Y-46500
X73250Y-47500
X73250Y-48500
X73250Y-49500
X73250Y-50500
X73250Y-51500
X73250Y-52500
X74250Y-22500
X74250Y-26500
X74250Y-28500
X74250Y-30500
X74250Y-40500
X74250Y-45500
X75250Y-19500
X75250Y-20500
X75250Y-22500
X75250Y-24500
X75250Y-25500
X75250Y-28500
X75250Y-36500
X75250Y-39500
X75250Y-48500
X75250Y-49500
X75250Y-52500
X76250Y-22500
X76250Y-24500
X76250Y-25500
X76250Y-28500
X76250Y-30500
X76250Y-31500
X76250Y-32500
X76250Y-33500
X76250Y-34500
X76250Y-35500
X76250Y-36500
X76250Y-37500
X76250Y-38500
X76250Y-39500
X76250Y-40500
X76250Y-42500
X76250Y-46500
X76250Y-47500
X76250Y-48500
X76250Y-49500
X76250Y-50500
X76250Y-51500
X76250Y-52500
X77250Y-22500
X77250Y-23500
X77250Y-24500
X77250Y-28500
X77250Y-29500
X77250Y-30500
X77250Y-31500
X77250Y-32500
X77250Y-33500
X77250Y-34500
X77250Y-35500
X77250Y-36500
X77250Y-37500
X77250Y-38500
X77250Y-39500
X77250Y-40500
X77250Y-41500
X77250Y-46500
X77250Y-47500
X78250Y-22500
X78250Y-23500
X78250Y-28500
X78250Y-34500
X78250Y-35500
X78250Y-37500
X78250Y-40500
X78250Y-41500
X78250Y-45500
X78250Y-46500
X78250Y-47500
X78250Y-48500
X78250Y-49500
X78250Y-50500
X78250Y-51500
X78250Y-52500
X79250Y-19500
X79250Y-20500
X79250Y-21500
X79250Y-22500
X79250Y-23500
X79250Y-27500
X79250Y-28500
X79250Y-34500
X79250Y-35500
X79250Y-37500
X79250Y-38500
X79250Y-40500
X79250Y-44500
X79250Y-47500
X79250Y-50500
X80250Y-22500
X80250Y-23500
X80250Y-28500
X80250Y-30500
X80250Y-38500
X80250Y-39500
X80250Y-40500
X80250Y-43500
X80250Y-45500
X80250Y-47500
X80250Y-52500
X81250Y-19500
X81250Y-20500
X81250Y-22500
X81250Y-23500
X81250Y-24500
X81250Y-28500
X81250Y-29500
X81250Y-30500
X81250Y-31500
X81250Y-32500
X81250Y-33500
X81250Y-34500
X81250Y-35500
X81250Y-36500
X81250Y-37500
X81250Y-38500
X81250Y-39500
X81250Y-40500
X81250Y-44500
X81250Y-45500
X81250Y-46500
X81250Y-47500
X81250Y-48500
X81250Y-49500
X81250Y-50500
X81250Y-51500
X81250Y-52500
X82250Y-20500
X82250Y-22500
X82250Y-26500
X82250Y-28500
X82250Y-30500
X82250Y-32500
X82250Y-39500
X82250Y-40500
X82250Y-44500
X82250Y-46500
X82250Y-47500
X82250Y-49500
X82250Y-50500
X83250Y-19500
X83250Y-22500
X83250Y-27500
X83250Y-28500
X83250Y-30500
X83250Y-31500
X83250Y-32500
X83250Y-33500
X83250Y-34500
X83250Y-35500
X83250Y-36500
X83250Y-37500
X83250Y-39500
X83250Y-40500
X83250Y-41500
X83250Y-42500
X83250Y-43500
X83250Y-44500
X83250Y-45500
X83250Y-46500
X83250Y-47500
X84250Y-22500
X84250Y-27500
X84250Y-28500
X84250Y-31500
X84250Y-33500
X84250Y-34500
X84250Y-36500
X84250Y-41500
X84250Y-42500
X84250Y-45500
X84250Y-46500
X84250Y-49500
X84250Y-50500
X85250Y-19500
X85250Y-20500
X85250Y-22500
X85250Y-28500
X85250Y-33500
X85250Y-34500
X85250Y-35500
X85250Y-41500
X85250Y-42500
X85250Y-44500
X85250Y-45500
X85250Y-46500
X85250Y-47500
X85250Y-48500
X85250Y-49500
X85250Y-50500
X85250Y-52500
X86250Y-21500
X86250Y-22500
X86250Y-28500
X86250Y-30500
X86250Y-31500
X86250Y-32500
X86250Y-33500
X86250Y-34500
X86250Y-35500
X86250Y-36500
X86250Y-37500
X86250Y-40500
X86250Y-41500
X86250Y-42500
X86250Y-43500
X86250Y-44500
X86250Y-45500
X86250Y-46500
X86250Y-47500
X86250Y-48500
X87250Y-31500
X87250Y-34500
X87250Y-39500
X87250Y-40500
X87250Y-42500
X87250Y-43500
X87250Y-44500
X87250Y-47500
X87250Y-48500
X87250Y-50500
X87250Y-52500
X88250Y-31500
X88250Y-33500
X88250Y-36500
X88250Y-40500
X88250Y-42500
X88250Y-46500
X89250Y-21500
X89250Y-22500
X89250Y-28500
X89250Y-29500
X89250Y-30500
X89250Y-31500
X89250Y-32500
X89250Y-33500
X89250Y-34500
X89250Y-35500
X89250Y-36500
X89250Y-37500
X89250Y-38500
X89250Y-39500
X89250Y-40500
X89250Y-41500
X89250Y-42500
X89250Y-43500
X89250Y-44500
X89250Y-45500
X89250Y-46500
X89250Y-47500
T2
X24750Y-19500
X24750Y-55250
X34750Y-19500
X34750Y-55250
X37750Y-19500
X37750Y-55250
X48750Y-19500
X48750Y-55250
X51750Y-19500
X51750Y-55250
X62750Y-19500
X62750Y-55250
X65750Y-19500
X65750Y-55250
X90000Y-19500
X90000Y-55250
T0
M30
